# xmcd
#
# Track frame offsets: 
#        150
#        18532
#        39510
#
# Disc length: 876 seconds
#
# Revision: 3
# Processed by: cddbd v1.5.2PL0 Copyright (c) Steve Scherf et al.
# Submitted via: ExactAudioCopy v1.0b1
#
DISCID=1c036a03
DTITLE=Kim Wilde - Four Letter Word
DYEAR=1988
DGENRE=Country
TTITLE0=Four Letter Word
TTITLE1=She Hasn't Got Time For You ('88)
TTITLE2=Four Letter Word (Extended Version)
EXTD=
EXTT0=
EXTT1=
EXTT2=
PLAYORDER=
